#!OML:ASF E:/inclinewalkrobotboard/Project1/Captureday1/Session1/subject1.ASF
:FULLY-SPECIFIED
:DEGREES
11
root 0 0 0 -2.1024027447770273 -3.718353305587724 0.5123266746344364
lowerback 7.564302318806248 1.6183357874871382 -2.5378951625239408
upperback 1.9372087849845228 2.0072848183971015 -0.07907281962430512
thorax -2.263303248322946 1.0564952550194007 1.222611268758595
lowerneck -9.155424511441469 -5.550997623505692 -6.496386662495538
upperneck 30.90768452741526 -8.681516223281363 6.186253928228149
head 11.567454820691495 -3.9623457838376384 2.062379738398693
rclavicle -1.7154448404624307E-15 1.5162227666430958E-15
rhumerus -9.481683063259265 3.267554202244008 -79.9000630014728
rradius 50.362641610935
rwrist -21.109925961503755
rhand -41.986027285596734 15.798015958706268
rfingers 7.125019999999949
rthumb -14.838300146235746 -13.623825486124415
lclavicle -6.014964450352426E-15 1.2190937225782433E-15
lhumerus -31.024407321836787 11.878554769902172 77.0275368319204
lradius 24.685983877055357
lwrist -4.974496169259672
lhand -24.265152407550993 21.885517536539567
lfingers 7.1250199999999575
lthumb 2.2241514685569928 51.82501181100373
rfemur 2.053375407434672 8.345776892123112 34.55914113032481
rtibia 28.52908278859583
rfoot -19.570780213822832 -8.800976720123838
rtoes 2.6346834226370213
lfemur -31.646006864616844 0.6286032121999554 -13.82962423567273
ltibia 37.34080407419934
lfoot -3.9205687574596677 -4.6739560000730815
ltoes -3.763799935777766
12
root 0 0 0 -2.114777518769589 -3.73961626837702 0.5009426841464428
lowerback 7.604094909049123 1.6005917497098532 -2.535623282572654
upperback 1.891646093165369 1.9843292252435447 -0.06471710022107646
thorax -2.337220697073861 1.0432942182472196 1.2391055376913918
lowerneck -9.290203328579448 -5.537505768225554 -6.44599475672679
upperneck 30.9722352305718 -8.656518469029935 6.136607844377931
head 11.5938237353245 -3.948931835046304 2.0469522177785553
rclavicle -1.4679026659411716E-15 1.431584752958819E-15
rhumerus -8.792405828244291 2.376892822509075 -79.7551335985259
rradius 49.33456770477634
rwrist -20.85760864454915
rhand -42.039817971420305 16.06853744363881
rfingers 7.125019999999946
rthumb -14.883408780672784 -13.345673217811168
lclavicle -5.834708795684779E-15 1.048637275334361E-15
lhumerus -30.92771380269673 11.855331533736262 77.16763365489028
lradius 24.748897087028826
lwrist -4.884656989708569
lhand -24.282499127870643 21.865952886950264
lfingers 7.125019999999957
lthumb 2.2074423208473384 51.80587468409817
rfemur -2.784676504371821 8.068276701615726 34.02594236353115
rtibia 32.17195650858521
rfoot -17.416684697498283 -9.176882061115165
rtoes 3.70312707210018
lfemur -29.914060677742903 0.9219624369844066 -14.797263119629182
ltibia 39.273711719571466
lfoot -3.1378537431080495 -6.154304458177593
ltoes -3.064642860292957
13
root 0 0 0 -2.130921715832695 -3.771120222653792 0.49482632280219857
lowerback 7.61262603835155 1.5863799317562028 -2.5332362848332544
upperback 1.8656836702973276 1.9661616726219577 -0.05504870492070657
thorax -2.3706805165491995 1.0333940427356443 1.250793072357248
lowerneck -9.348719978165072 -5.526466354716959 -6.412329867925533
upperneck 31.035141149621243 -8.642819144313599 6.093355913575628
head 11.614040324094898 -3.941796582278126 2.0313050911081096
rclavicle -1.3086686377324689E-15 1.3565539112406238E-15
rhumerus -8.335325492606756 1.8375506175535303 -79.63598114478512
rradius 48.76146913200038
rwrist -20.698163002674505
rhand -42.0506939259742 16.224390565053344
rfingers 7.125019999999943
rthumb -14.889448129604098 -13.18614806622771
lclavicle -5.706068240060142E-15 8.823023143283549E-16
lhumerus -30.81104670518959 11.783382243067157 77.35730850198395
lradius 24.819403501152543
lwrist -4.782891149708018
lhand -24.259810564924194 21.86817702227527
lfingers 7.125019999999956
lthumb 2.2289888559402633 51.80788536424054
rfemur -7.31529935102427 7.853031510842115 33.47214189927087
rtibia 35.01203826378899
rfoot -15.533147522734248 -9.522185165598735
rtoes 4.611705696614831
lfemur -28.37259417040277 1.2641539758007276 -15.483747800761355
ltibia 41.49633532394505
lfoot -2.772244708282022 -7.2121824929743905
ltoes -2.9109646555174606
14
root 0 0 0 -2.157022742999689 -3.8197818452457497 0.48885839796361147
lowerback 7.606035313619074 1.568863039320291 -2.5300196647509363
upperback 1.8381164645166006 1.9438999645640036 -0.04475491211870131
thorax -2.3966028990167443 1.0215583715020102 1.2635718335342196
lowerneck -9.393348914994556 -5.513031617189322 -6.375355171319326
upperneck 31.121695110397233 -8.630468608798243 6.035887881973986
head 11.639350312783462 -3.935371117146892 2.009132728156892
rclavicle -1.2316024187189073E-15 1.268944276733765E-15
rhumerus -7.870328808298197 1.3263867894327075 -79.49696165136956
rradius 48.27016532746574
rwrist -20.55896353432247
rhand -42.041086152586445 16.344574757517492
rfingers 7.125019999999941
rthumb -14.876483622033785 -13.06334715668221
lclavicle -5.641374785846883E-15 6.881649531391767E-16
lhumerus -30.67059382918167 11.687611712241518 77.58896550927064
lradius 24.904327089345422
lwrist -4.660210876997711
lhand -24.225433951225362 21.875864365744
lfingers 7.125019999999954
lthumb 2.2616604312896342 51.8151170969883
rfemur -12.102345127399865 7.612568846955312 32.92287156247493
rtibia 37.9387033801559
rfoot -13.504127423460421 -9.756736483134567
rtoes 5.48045050393471
lfemur -26.51078575234323 1.7298291856874108 -16.177273953818244
ltibia 44.63863908623932
lfoot -2.446847947614982 -8.347436625894646
ltoes -3.059259163902641
15
root 0 0 0 -2.1956643267201597 -3.882445237199594 0.48174516067869194
lowerback 7.582758775558768 1.5487273282982983 -2.5249447095741906
upperback 1.8042259498099402 1.9185620901633187 -0.03460741226680286
thorax -2.419025694113934 1.0081121136038225 1.2755102089242443
lowerneck -9.435654041959502 -5.497124944061608 -6.33455832143239
upperneck 31.22631809213876 -8.618279694876565 5.962059334452189
head 11.669407273181493 -3.9287535527415782 1.9798480597656094
rclavicle -1.2911682110900434E-15 1.2097038887820037E-15
rhumerus -7.433395288343071 0.8863134833662163 -79.35203904417601
rradius 47.921570494976024
rwrist -20.45311172027148
rhand -42.019671947108435 16.408833526618615
rfingers 7.125019999999938
rthumb -14.853364648268101 -12.997054674609892
lclavicle -5.662314315411918E-15 5.209102710277903E-16
lhumerus -30.522270455503165 11.5729181299843 77.83805741027075
lradius 24.985200938175375
lwrist -4.543754124979095
lhand -24.165764181519478 21.893532549261295
lfingers 7.125019999999952
lthumb 2.318547387841477 51.8320767858146
rfemur -15.795580116517513 7.367483927515958 32.6310176540629
rtibia 40.288481313118545
rfoot -11.925914746402311 -9.732894713343898
rtoes 6.311618673183103
lfemur -24.731798678598295 2.234152030333968 -16.685777106611376
ltibia 48.34785068854572
lfoot -2.137462623921971 -9.253522976797788
ltoes -3.489060758254379
16
root 0 0 0 -2.2684345074223025 -3.972110252008772 0.46877851220146755
lowerback 7.515982794683741 1.5227858164907646 -2.510213264585159
upperback 1.7466404208036108 1.8872763762670828 -0.02355199035322675
thorax -2.4401311525774836 0.9911576176118697 1.2837128476088173
lowerneck -9.495360235797497 -5.470972032010592 -6.276054915713499
upperneck 31.377562595098286 -8.599138362791921 5.837251668495943
head 11.713944312795505 -3.9177984908565726 1.929747227798417
rclavicle -1.6716608522916223E-15 1.2211177449336815E-15
rhumerus -7.136232336375322 0.6438978790607512 -79.23231085221875
rradius 47.866944678964806
rwrist -20.453725477608057
rhand -41.978470962279594 16.3311082028755
rfingers 7.125019999999937
rthumb -14.814690382127369 -13.073902233818334
lclavicle -5.8293259377409875E-15 4.2771976172608034E-16
lhumerus -30.346431288290635 11.415903807711521 78.14099497168115
lradius 25.061615232040893
lwrist -4.4348032379292555
lhand -24.049816910212748 21.930756522784357
lfingers 7.125019999999951
lthumb 2.429422362550876 51.867918633391554
rfemur -18.2750933823576 7.141628739441451 32.64497318252822
rtibia 41.426810897011165
rfoot -11.047240685954034 -9.396848315248725
rtoes 7.432644048626381
lfemur -23.255076114630175 2.8744815522754283 -16.624078974602945
ltibia 53.74949628950366
lfoot -1.848428520318711 -9.526736901695136
ltoes -4.481049661386296
17
root 0 0 0 -2.309035950025239 -4.000316047058907 0.4615736788753277
lowerback 7.458924218652396 1.5167707035072078 -2.495252470086869
upperback 1.7196915148989627 1.882037768167775 -0.021316270115359748
thorax -2.4341706137371397 0.9879001551563584 1.2790928486745141
lowerneck -9.513727333529962 -5.455667098138287 -6.251274392512611
upperneck 31.442067004191166 -8.587435612142373 5.771104080742284
head 11.733953464805264 -3.911189798537396 1.9029765269325887
rclavicle -1.9522128830612218E-15 1.2401758731044228E-15
rhumerus -7.241961265923049 0.82149772066313 -79.24038934152237
rradius 48.16665819211101
rwrist -20.553108008347557
rhand -41.950808815633835 16.185288320436573
rfingers 7.125019999999938
rthumb -14.791387332384563 -13.22125311308733
lclavicle -5.9219987465592615E-15 3.942168424112273E-16
lhumerus -30.274231462995118 11.320627922957224 78.2791866264176
lradius 25.0728528069175
lwrist -4.418868236362006
lhand -23.949396162440426 21.966967199384534
lfingers 7.12501999999995
lthumb 2.5258450818567546 51.90304170671094
rfemur -18.23704295843077 7.169216896543224 32.72117793277972
rtibia 40.60328420802271
rfoot -11.340852123032654 -9.267150211820098
rtoes 7.8396942230567515
lfemur -23.240386073319456 3.2429812932445063 -16.021709196906475
ltibia 56.829544188558806
lfoot -2.0232202449796066 -8.940100508309127
ltoes -5.276878154298558
18
root 0 0 0 -2.335121944085458 -4.004145744577699 0.45748128126883464
lowerback 7.405564741048289 1.5190745103236192 -2.4800908593002275
upperback 1.7081002291063663 1.8876766702120296 -0.022737762883375257
thorax -2.413976823676051 0.9904630988493364 1.2693637363724148
lowerneck -9.507221514037177 -5.444542851042562 -6.240757318858292
upperneck 31.468948984554416 -8.57889247231151 5.7308614919702725
head 11.742413296646736 -3.906626270915717 1.8863954105968654
rclavicle -2.224184005049236E-15 1.2494353484870755E-15
rhumerus -7.562828052222404 1.2297226087876147 -79.30859726619505
rradius 48.66386747936228
rwrist -20.724397635177436
rhand -41.9128474342516 15.985727128556043
rfingers 7.125019999999939
rthumb -14.759669955123126 -13.424748641586778
lclavicle -6.017356509150546E-15 3.8324402055466305E-16
lhumerus -30.248850726892123 11.252989098608337 78.34391361644751
lradius 25.064368105892694
lwrist -4.429838990730587
lhand -23.870276399960915 22.000560462094402
lfingers 7.1250199999999495
lthumb 2.602003058494919 51.935649630879865
rfemur -17.016230575452024 7.314760870370291 32.80278622641785
rtibia 38.908490384891735
rfoot -12.237949717130142 -9.264682306899587
rtoes 7.897716580396471
lfemur -23.816860102056527 3.591741778348034 -15.17552267879965
ltibia 59.35897010702793
lfoot -2.609329319875334 -7.913107734689705
ltoes -6.141469158172566
